<svg xmlns="http://www.w3.org/2000/svg" viewBox="0 0 509.64 149.66"><defs><style>.cls-1{fill:#a32724;}.cls-2{fill:#f18820;}.cls-3{fill:#fac114;}.cls-4{fill:#e94525;}</style></defs><title>LOGO-NGUJI</title><g id="LOGO"><path d="M255.89,16.93V89.06H242.18l-36-43.8v43.8H189.73V16.93h13.8L239.4,60.72V16.93Z"/><path d="M321.72,51.86H337V81.13c-7.94,6-18.86,9.17-29.16,9.17-22.67,0-39.37-15.56-39.37-37.31s16.7-37.3,39.68-37.3c12.67,0,23.18,4.33,30.19,12.47l-10.72,9.89a24.41,24.41,0,0,0-18.65-8.14c-14,0-23.6,9.38-23.6,23.08,0,13.5,9.59,23.09,23.39,23.09a26.5,26.5,0,0,0,13-3.1Z"/><path d="M351.8,57.32V16.93h16.69V56.7c0,13.71,6,19.38,16.08,19.38s16.07-5.67,16.07-19.38V16.93h16.49V57.32c0,21.23-12.16,33-32.67,33S351.8,78.55,351.8,57.32Z"/><path d="M423.4,79.79l9.27-11.13c3.92,5.25,8.25,7.93,13.4,7.93,6.7,0,10.2-4,10.2-12V30.32H430.92V16.93h41.94V63.71c0,17.83-9,26.59-26,26.59C437.21,90.3,428.66,86.59,423.4,79.79Z"/><path d="M489.34,16.93H506V89.06H489.34Z"/><path d="M189.73,105.53h11.48c9,0,15.11,5.8,15.11,14.1s-6.08,14.1-15.11,14.1H189.73Zm11.32,25.62c7.5,0,12.33-4.75,12.33-11.52s-4.83-11.52-12.33-11.52h-8.34v23Z"/><path d="M243,131.15v2.58H223v-28.2h19.34v2.58H226v10h14.59v2.54H226v10.47Z"/><path d="M273,105.53l-12.49,28.2h-2.94l-12.49-28.2h3.22L259.1,130,270,105.53Z"/><path d="M297,131.15v2.58H277.06v-28.2H296.4v2.58H280v10h14.59v2.54H280v10.47Z"/><path d="M304,105.53h3v25.62h15.8v2.58H304Z"/><path d="M324.68,119.63c0-8.22,6.28-14.34,14.82-14.34s14.79,6.08,14.79,14.34S348,134,339.5,134,324.68,127.85,324.68,119.63Zm26.63,0a11.85,11.85,0,1,0-11.81,11.69A11.42,11.42,0,0,0,351.31,119.63Z"/><path d="M383.05,115.2c0,6-4.35,9.63-11.52,9.63H364v8.9h-3v-28.2h10.56C378.7,105.53,383.05,109.16,383.05,115.2Zm-3,0c0-4.51-3-7.09-8.62-7.09H364v14.1h7.5C377.09,122.21,380.07,119.63,380.07,115.2Z"/><path d="M418.78,105.53v28.2h-2.86V111.17l-11.08,19h-1.41l-11.08-18.86v22.44h-2.86v-28.2H392l12.25,20.91,12.13-20.91Z"/><path d="M447.91,131.15v2.58H428v-28.2H447.3v2.58H430.94v10h14.59v2.54H430.94v10.47Z"/><path d="M478.48,105.53v28.2H476l-18.13-22.88v22.88h-3v-28.2h2.46l18.17,22.89V105.53Z"/><path d="M493.14,108.11h-9.91v-2.58H506v2.58h-9.91v25.62h-3Z"/><polygon class="cls-1" points="45.03 146.85 65.82 110.84 24.24 110.84 45.03 146.85"/><polygon class="cls-2" points="86.61 146.85 107.4 110.84 65.82 110.84 86.61 146.85"/><polygon class="cls-3" points="86.61 74.83 65.82 110.84 107.4 110.84 86.61 74.83"/><polygon class="cls-1" points="128.19 146.85 148.97 110.84 107.4 110.84 128.19 146.85"/><polygon class="cls-4" points="65.82 110.84 45.03 146.85 86.61 146.85 65.82 110.84"/><polygon class="cls-4" points="107.4 110.84 86.61 146.85 128.19 146.85 107.4 110.84"/><polygon class="cls-4" points="24.37 38.88 45.19 74.87 65.95 38.85 24.37 38.88"/><polygon class="cls-2" points="3.61 74.9 24.42 110.89 45.19 74.87 3.61 74.9"/><polygon class="cls-3" points="45.19 74.87 24.37 38.88 3.61 74.9 45.19 74.87"/><polygon class="cls-2" points="169.74 74.9 148.93 110.89 128.16 74.87 169.74 74.9"/><polygon class="cls-3" points="128.16 74.87 148.97 38.88 169.74 74.9 128.16 74.87"/><polygon class="cls-2" points="128.19 2.82 107.4 38.83 148.97 38.83 128.19 2.82"/><polygon class="cls-2" points="86.61 2.82 65.82 38.83 107.4 38.83 86.61 2.82"/><polygon class="cls-4" points="86.61 74.83 107.4 38.83 65.82 38.83 86.61 74.83"/><polygon class="cls-1" points="45.03 2.82 24.24 38.83 65.82 38.83 45.03 2.82"/><polygon class="cls-3" points="107.4 38.83 128.19 2.82 86.61 2.82 107.4 38.83"/><polygon class="cls-4" points="65.82 38.83 86.61 2.82 45.03 2.82 65.82 38.83"/><polygon class="cls-4" points="128.16 74.83 107.38 110.84 148.95 110.84 128.16 74.83"/></g></svg>