<svg xmlns="http://www.w3.org/2000/svg" viewBox="0 0 342.72 100"><defs><style>.cls-1{fill:#a32724;}.cls-2{fill:#f18820;}.cls-3{fill:#fac114;}.cls-4{fill:#e94525;}</style></defs><title>LOGOTIPO</title><g id="LOGO"><path d="M172.09,10.5V59.71h-9.35L138.21,29.83V59.71H127V10.5h9.42l24.46,29.88V10.5Z"/><path d="M217,34.33h10.4v20a33.92,33.92,0,0,1-19.89,6.26c-15.47,0-26.86-10.61-26.86-25.45S192,9.66,207.72,9.66c8.64,0,15.81,2.95,20.59,8.5L221,24.91a16.62,16.62,0,0,0-12.72-5.55c-9.56,0-16.1,6.39-16.1,15.74s6.54,15.75,16,15.75A18.08,18.08,0,0,0,217,48.74Z"/><path d="M237.51,38.06V10.5H248.9V37.63c0,9.35,4.08,13.22,11,13.22s11-3.87,11-13.22V10.5h11.25V38.06c0,14.48-8.3,22.49-22.28,22.49S237.51,52.54,237.51,38.06Z"/><path d="M286.36,53.38l6.32-7.59c2.67,3.58,5.63,5.41,9.14,5.41,4.57,0,7-2.74,7-8.15V19.64H291.49V10.5H320.1V42.41c0,12.17-6.12,18.14-17.72,18.14C295.78,60.55,289.94,58,286.36,53.38Z"/><path d="M331.34,10.5h11.38V59.71H331.34Z"/><path d="M127,70.94h7.83c6.16,0,10.31,4,10.31,9.62s-4.15,9.62-10.31,9.62H127Zm7.72,17.48c5.12,0,8.41-3.24,8.41-7.86s-3.29-7.86-8.41-7.86H129V88.42Z"/><path d="M163.26,88.42v1.76h-13.6V70.94h13.19V72.7H151.69v6.84h9.95v1.73h-9.95v7.15Z"/><path d="M183.76,70.94l-8.52,19.24h-2l-8.52-19.24h2.19l7.37,16.71,7.42-16.71Z"/><path d="M200.14,88.42v1.76h-13.6V70.94h13.19V72.7H188.57v6.84h10v1.73h-10v7.15Z"/><path d="M204.92,70.94h2V88.42h10.78v1.76H204.92Z"/><path d="M219,80.56c0-5.61,4.29-9.78,10.12-9.78s10.08,4.15,10.08,9.78-4.31,9.78-10.08,9.78S219,86.17,219,80.56Zm18.17,0a8.08,8.08,0,1,0-8.05,8A7.8,7.8,0,0,0,237.18,80.56Z"/><path d="M258.83,77.54c0,4.09-3,6.57-7.86,6.57h-5.16v6.07h-2V70.94H251C255.86,70.94,258.83,73.41,258.83,77.54Zm-2,0c0-3.08-2-4.84-5.88-4.84h-5.11v9.62h5.11C254.76,82.32,256.8,80.56,256.8,77.54Z"/><path d="M283.21,70.94V90.18h-1.95V74.79L273.7,87.73h-1l-7.56-12.86V90.18h-1.95V70.94h1.67l8.36,14.26,8.27-14.26Z"/><path d="M303.07,88.42v1.76h-13.6V70.94h13.19V72.7H291.5v6.84h9.95v1.73H291.5v7.15Z"/><path d="M323.93,70.94V90.18h-1.68L309.88,74.57V90.18h-2V70.94h1.68l12.39,15.61V70.94Z"/><path d="M333.93,72.7h-6.76V70.94h15.55V72.7H336V90.18h-2Z"/><polygon class="cls-1" points="28.26 99.12 42.44 74.56 14.08 74.56 28.26 99.12"/><polygon class="cls-2" points="56.62 99.12 70.8 74.56 42.44 74.56 56.62 99.12"/><polygon class="cls-3" points="56.62 50 42.44 74.56 70.8 74.56 56.62 50"/><polygon class="cls-1" points="84.98 99.12 99.16 74.56 70.8 74.56 84.98 99.12"/><polygon class="cls-4" points="42.44 74.56 28.26 99.12 56.62 99.12 42.44 74.56"/><polygon class="cls-4" points="70.8 74.56 56.62 99.12 84.98 99.12 70.8 74.56"/><polygon class="cls-4" points="14.16 25.47 28.36 50.03 42.53 25.45 14.16 25.47"/><polygon class="cls-2" points="0 50.04 14.2 74.6 28.36 50.03 0 50.04"/><polygon class="cls-3" points="28.36 50.03 14.16 25.47 0 50.04 28.36 50.03"/><polygon class="cls-2" points="113.33 50.04 99.13 74.6 84.97 50.03 113.33 50.04"/><polygon class="cls-3" points="84.97 50.03 99.16 25.47 113.33 50.04 84.97 50.03"/><polygon class="cls-2" points="84.98 0.88 70.8 25.44 99.16 25.44 84.98 0.88"/><polygon class="cls-2" points="56.62 0.88 42.44 25.44 70.8 25.44 56.62 0.88"/><polygon class="cls-4" points="56.62 50 70.8 25.44 42.44 25.44 56.62 50"/><polygon class="cls-1" points="28.26 0.88 14.08 25.44 42.44 25.44 28.26 0.88"/><polygon class="cls-3" points="70.8 25.44 84.98 0.88 56.62 0.88 70.8 25.44"/><polygon class="cls-4" points="42.44 25.44 56.62 0.88 28.26 0.88 42.44 25.44"/><polygon class="cls-4" points="84.97 50 70.78 74.56 99.14 74.56 84.97 50"/></g></svg>